<svg width="658" height="147" viewBox="0 0 658 147" fill="none" xmlns="http://www.w3.org/2000/svg">
<path d="M65.3842 147C71.984 147 77.3342 141.65 77.3342 135.05C77.3342 128.45 71.984 123.1 65.3842 123.1C58.7843 123.1 53.4341 128.45 53.4341 135.05C53.4341 141.65 58.7843 147 65.3842 147Z" fill="url(#paint0_linear_2247_3479)"/>
<path d="M122.893 92.8944L78.5615 76.0378C77.5599 75.6562 76.9112 74.6926 76.9144 73.621C76.9144 73.6147 76.9144 73.6083 76.9144 73.6019C76.9144 73.5956 76.9144 73.5892 76.9144 73.5829C76.9144 72.5112 77.5599 71.5477 78.5615 71.1661L122.893 54.3095C129.917 51.6384 132.881 43.3102 129.122 36.801C125.363 30.2917 116.673 28.6954 110.844 33.443L74.0811 63.404C73.2479 64.0813 72.0873 64.1576 71.1587 63.6202C71.1492 63.6139 71.1365 63.6075 71.1269 63.6012C70.1984 63.0669 69.6896 62.0239 69.8613 60.9682L77.4263 14.1506C78.6251 6.73185 72.895 0 65.3809 0C57.8636 0 52.1366 6.72867 53.3354 14.1506L60.9004 60.9682C61.0721 62.0239 60.5601 63.0669 59.6348 63.6012C59.6252 63.6075 59.6125 63.6139 59.603 63.6202C58.6744 64.1576 57.5138 64.0813 56.6807 63.404L19.9178 33.443C14.0923 28.6954 5.39841 30.2917 1.63977 36.801C-2.11887 43.3102 0.844798 51.6352 7.86919 54.3095L52.2002 71.1661C53.2018 71.5477 53.8505 72.5112 53.8474 73.5829C53.8474 73.5892 53.8474 73.5956 53.8474 73.6019C53.8474 73.6083 53.8474 73.6147 53.8474 73.621C53.8474 74.6926 53.2018 75.6562 52.2002 76.0378L7.86919 92.8944C0.844798 95.5655 -2.11887 103.894 1.63977 110.403C5.39841 116.912 14.0891 118.508 19.9178 113.761L56.6807 83.7999C57.5138 83.1226 58.6744 83.0462 59.603 83.5836C59.6125 83.59 59.6252 83.5964 59.6348 83.6027C60.5633 84.1369 61.0721 85.18 60.9004 86.2357L57.9558 104.463C57.2181 109.036 60.7477 113.185 65.3809 113.185C70.014 113.185 73.5468 109.036 72.8059 104.463L69.8613 86.2357C69.6896 85.18 70.2016 84.1369 71.1269 83.6027C71.1365 83.5964 71.1492 83.59 71.1587 83.5836C72.0873 83.0462 73.2479 83.1226 74.0811 83.7999L110.844 113.761C116.669 118.508 125.363 116.912 129.122 110.403C132.881 103.894 129.917 95.5687 122.893 92.8944Z" fill="url(#paint1_linear_2247_3479)"/>
<path d="M169.002 109.5V36.7H177.738V100.764H210.342V109.5H169.002ZM212.702 89.74V57.5H221.438V87.816C221.438 90.4507 222.079 92.8427 223.362 94.992C224.645 97.1413 226.361 98.8573 228.51 100.14C230.694 101.388 233.086 102.012 235.686 102.012C238.321 102.012 240.695 101.388 242.81 100.14C244.959 98.8573 246.675 97.1413 247.958 94.992C249.241 92.8427 249.882 90.4507 249.882 87.816V57.5H258.618L258.67 109.5H249.934L249.882 102.896C248.045 105.323 245.722 107.264 242.914 108.72C240.106 110.141 237.073 110.852 233.814 110.852C229.931 110.852 226.378 109.916 223.154 108.044C219.965 106.137 217.417 103.589 215.51 100.4C213.638 97.2107 212.702 93.6573 212.702 89.74ZM268.078 109.5V57.5H276.814V64C278.651 61.5733 280.957 59.6493 283.73 58.228C286.538 56.772 289.589 56.044 292.882 56.044C296.73 56.044 300.249 56.98 303.438 58.852C306.627 60.724 309.141 63.2027 310.978 66.288C312.815 63.2027 315.311 60.724 318.466 58.852C321.655 56.98 325.157 56.044 328.97 56.044C332.887 56.044 336.441 56.9973 339.63 58.904C342.819 60.776 345.35 63.3067 347.222 66.496C349.129 69.6853 350.082 73.2387 350.082 77.156V109.5H341.346V79.236C341.346 76.6707 340.722 74.296 339.474 72.112C338.226 69.928 336.545 68.1773 334.43 66.86C332.315 65.5427 329.975 64.884 327.41 64.884C324.845 64.884 322.505 65.508 320.39 66.756C318.275 67.9693 316.594 69.668 315.346 71.852C314.098 74.0013 313.474 76.4627 313.474 79.236V109.5H304.738V79.236C304.738 76.4627 304.114 74.0013 302.866 71.852C301.618 69.668 299.919 67.9693 297.77 66.756C295.655 65.508 293.315 64.884 290.75 64.884C288.219 64.884 285.879 65.5427 283.73 66.86C281.615 68.1773 279.934 69.928 278.686 72.112C277.438 74.296 276.814 76.6707 276.814 79.236V109.5H268.078ZM381.324 110.852C376.54 110.852 372.172 109.621 368.22 107.16C364.303 104.699 361.166 101.405 358.808 97.28C356.486 93.12 355.324 88.5267 355.324 83.5C355.324 79.6867 356 76.1333 357.352 72.84C358.704 69.512 360.559 66.6 362.916 64.104C365.308 61.5733 368.082 59.5973 371.236 58.176C374.391 56.7547 377.754 56.044 381.324 56.044C385.242 56.044 388.83 56.8413 392.088 58.436C395.382 59.996 398.19 62.18 400.512 64.988C402.87 67.796 404.62 71.0547 405.764 74.764C406.943 78.4733 407.376 82.4427 407.064 86.672H364.632C365.048 89.6187 366.019 92.2533 367.544 94.576C369.07 96.864 371.011 98.684 373.368 100.036C375.76 101.388 378.412 102.081 381.324 102.116C384.444 102.116 387.27 101.319 389.8 99.724C392.331 98.0947 394.376 95.876 395.936 93.068L404.828 95.148C402.748 99.7587 399.611 103.537 395.416 106.484C391.222 109.396 386.524 110.852 381.324 110.852ZM364.372 79.808H398.276C397.999 76.896 397.063 74.244 395.468 71.852C393.874 69.4253 391.846 67.484 389.384 66.028C386.923 64.572 384.236 63.844 381.324 63.844C378.412 63.844 375.743 64.5547 373.316 65.976C370.89 67.3973 368.879 69.3213 367.284 71.748C365.724 74.14 364.754 76.8267 364.372 79.808ZM460.755 77.156V109.5H452.019V79.08C452.019 76.4453 451.378 74.0533 450.095 71.904C448.812 69.7547 447.096 68.056 444.947 66.808C442.798 65.5253 440.406 64.884 437.771 64.884C435.171 64.884 432.779 65.5253 430.595 66.808C428.446 68.056 426.73 69.7547 425.447 71.904C424.164 74.0533 423.523 76.4453 423.523 79.08V109.5H414.787V57.5H423.523V64C425.36 61.5733 427.683 59.6493 430.491 58.228C433.299 56.772 436.35 56.044 439.643 56.044C443.526 56.044 447.062 56.9973 450.251 58.904C453.475 60.776 456.023 63.3067 457.895 66.496C459.802 69.6853 460.755 73.2387 460.755 77.156ZM491.979 110.852C487.195 110.852 482.827 109.621 478.875 107.16C474.957 104.699 471.82 101.405 469.463 97.28C467.14 93.12 465.979 88.5267 465.979 83.5C465.979 79.6867 466.655 76.1333 468.007 72.84C469.359 69.512 471.213 66.6 473.571 64.104C475.963 61.5733 478.736 59.5973 481.891 58.176C485.045 56.7547 488.408 56.044 491.979 56.044C496.763 56.044 501.113 57.2747 505.031 59.736C508.983 62.1973 512.12 65.508 514.443 69.668C516.8 73.828 517.979 78.4387 517.979 83.5C517.979 87.2787 517.303 90.8147 515.951 94.108C514.599 97.4013 512.727 100.313 510.335 102.844C507.977 105.34 505.221 107.299 502.067 108.72C498.947 110.141 495.584 110.852 491.979 110.852ZM491.979 102.116C495.237 102.116 498.167 101.267 500.767 99.568C503.401 97.8347 505.464 95.564 506.955 92.756C508.48 89.9133 509.243 86.828 509.243 83.5C509.243 80.1027 508.463 76.9827 506.903 74.14C505.377 71.2973 503.315 69.0267 500.715 67.328C498.115 65.6293 495.203 64.78 491.979 64.78C488.72 64.78 485.791 65.6467 483.191 67.38C480.591 69.0787 478.528 71.3493 477.003 74.192C475.477 77.0347 474.715 80.1373 474.715 83.5C474.715 86.9667 475.495 90.1213 477.055 92.964C478.615 95.772 480.712 98.008 483.347 99.672C485.981 101.301 488.859 102.116 491.979 102.116ZM574.586 36.7H585.142L611.61 109.5H602.354L596.946 94.628H562.782L557.426 109.5H548.118L574.586 36.7ZM566.006 85.892H593.722L579.838 47.88L566.006 85.892ZM621.609 109.5V36.7H630.345V109.5H621.609Z" fill="#272727"/>
<defs>
<linearGradient id="paint0_linear_2247_3479" x1="15.5481" y1="33.9231" x2="67.6119" y2="117.804" gradientUnits="userSpaceOnUse">
<stop stop-color="#5CBBFF"/>
<stop offset="0.406875" stop-color="#099CD6"/>
<stop offset="0.539625" stop-color="#78B9C9"/>
<stop offset="0.733437" stop-color="#FFD880"/>
<stop offset="1" stop-color="#FFC25C"/>
</linearGradient>
<linearGradient id="paint1_linear_2247_3479" x1="15.5481" y1="33.9231" x2="67.6119" y2="117.804" gradientUnits="userSpaceOnUse">
<stop stop-color="#5CBBFF"/>
<stop offset="0.406875" stop-color="#099CD6"/>
<stop offset="0.539625" stop-color="#78B9C9"/>
<stop offset="0.733437" stop-color="#FFD880"/>
<stop offset="1" stop-color="#FFC25C"/>
</linearGradient>
</defs>
</svg>
